<?xml version="1.0" encoding="UTF-8"?>
<!DOCTYPE svg PUBLIC "-//W3C//DTD SVG 1.1//EN" "http://www.w3.org/Graphics/SVG/1.1/DTD/svg11.dtd">
<svg xmlns="http://www.w3.org/2000/svg" version="1.1" width="1280px" height="853px" style="shape-rendering:geometricPrecision; text-rendering:geometricPrecision; image-rendering:optimizeQuality; fill-rule:evenodd; clip-rule:evenodd" xmlns:xlink="http://www.w3.org/1999/xlink">
<g><path style="opacity:1" fill="#e0e0e0" d="M 662.5,208.5 C 634.167,208.5 605.833,208.5 577.5,208.5C 573.016,201.4 567.016,199.9 559.5,204C 554.902,210.544 556.235,215.544 563.5,219C 568.239,219.865 572.406,218.698 576,215.5C 576.483,214.552 576.649,213.552 576.5,212.5C 602.167,212.5 627.833,212.5 653.5,212.5C 648.109,223.109 651.442,228.275 663.5,228C 669.368,226.963 672.035,223.463 671.5,217.5C 672.167,217.5 672.5,217.833 672.5,218.5C 672.5,219.833 672.5,221.167 672.5,222.5C 673.833,222.5 675.167,222.5 676.5,222.5C 679.93,226.36 682.597,230.693 684.5,235.5C 614.5,235.5 544.5,235.5 474.5,235.5C 474.5,236.833 474.5,238.167 474.5,239.5C 489.5,239.5 504.5,239.5 519.5,239.5C 515.664,249.844 519.331,254.678 530.5,254C 534.072,253.568 536.405,251.735 537.5,248.5C 561.5,248.5 585.5,248.5 609.5,248.5C 605.664,258.844 609.331,263.678 620.5,263C 624.072,262.568 626.405,260.735 627.5,257.5C 649.833,257.5 672.167,257.5 694.5,257.5C 698.112,269.283 700.779,281.283 702.5,293.5C 665.833,293.5 629.167,293.5 592.5,293.5C 590.915,288.188 587.248,285.522 581.5,285.5C 576.173,285.814 572.839,288.481 571.5,293.5C 550.167,293.5 528.833,293.5 507.5,293.5C 507.5,294.833 507.5,296.167 507.5,297.5C 529.167,297.5 550.833,297.5 572.5,297.5C 574.21,301.204 577.21,303.204 581.5,303.5C 584.324,303.17 586.991,302.336 589.5,301C 590.823,300.184 591.489,299.017 591.5,297.5C 628.833,297.5 666.167,297.5 703.5,297.5C 703.5,302.167 703.5,306.833 703.5,311.5C 692.833,311.5 682.167,311.5 671.5,311.5C 669.915,306.188 666.248,303.522 660.5,303.5C 651.76,304.652 648.927,309.319 652,317.5C 656.253,321.626 661.087,322.459 666.5,320C 668.751,319.252 670.084,317.752 670.5,315.5C 681.5,315.5 692.5,315.5 703.5,315.5C 703.665,323.862 703.332,332.195 702.5,340.5C 654.833,340.5 607.167,340.5 559.5,340.5C 554.572,334.288 548.572,333.121 541.5,337C 537.621,341.298 537.621,345.631 541.5,350C 546.468,353.232 551.468,353.232 556.5,350C 557.971,348.417 558.971,346.583 559.5,344.5C 606.833,344.5 654.167,344.5 701.5,344.5C 701.348,348.924 700.681,353.257 699.5,357.5C 679.5,357.5 659.5,357.5 639.5,357.5C 639.5,358.833 639.5,360.167 639.5,361.5C 659.167,361.5 678.833,361.5 698.5,361.5C 694.247,381.933 687.247,401.266 677.5,419.5C 617.373,436.975 561.373,428.142 509.5,393C 461.709,356.917 437.709,308.751 437.5,248.5C 446.164,231.999 458.497,218.833 474.5,209C 498.023,194.822 523.357,185.155 550.5,180C 583.258,174.293 614.258,179.293 643.5,195C 650.57,198.587 656.903,203.087 662.5,208.5 Z"/></g>
<g><path style="opacity:0.85" fill="#0010ff" d="M 676.5,222.5 C 675.167,222.5 673.833,222.5 672.5,222.5C 672.5,221.167 672.5,219.833 672.5,218.5C 693.177,218.833 713.844,218.5 734.5,217.5C 735.313,216.186 736.313,215.019 737.5,214C 714.984,212.511 692.317,212.011 669.5,212.5C 664.167,212.5 658.833,212.5 653.5,212.5C 627.833,212.5 602.167,212.5 576.5,212.5C 576.232,210.901 576.566,209.568 577.5,208.5C 605.833,208.5 634.167,208.5 662.5,208.5C 687.176,208.833 711.842,208.5 736.5,207.5C 740.852,202.982 745.019,198.316 749,193.5C 752.085,189.907 755.585,186.907 759.5,184.5C 760.442,184.608 761.275,184.941 762,185.5C 767.41,197.32 773.077,208.987 779,220.5C 782.218,213.003 785.718,205.67 789.5,198.5C 790.72,197.289 791.887,197.289 793,198.5C 795.516,203.531 798.016,208.531 800.5,213.5C 804.102,206.63 807.435,199.63 810.5,192.5C 811.242,191.713 812.075,191.047 813,190.5C 816.946,196.057 820.113,202.057 822.5,208.5C 828.798,209.496 835.132,209.83 841.5,209.5C 841.5,210.833 841.5,212.167 841.5,213.5C 834.159,213.666 826.826,213.5 819.5,213C 817.478,208.454 815.311,203.954 813,199.5C 812.5,200 812,200.5 811.5,201C 815.153,206.473 818.153,212.306 820.5,218.5C 826.798,219.496 833.132,219.83 839.5,219.5C 839.5,220.833 839.5,222.167 839.5,223.5C 832.159,223.666 824.826,223.5 817.5,223C 815.478,218.454 813.311,213.954 811,209.5C 807.333,216.833 803.667,224.167 800,231.5C 798.414,230.624 796.914,229.624 795.5,228.5C 793.338,224.176 791.171,219.842 789,215.5C 785.667,222.833 782.333,230.167 779,237.5C 777.506,238.747 776.006,238.747 774.5,237.5C 768.667,225.167 762.833,212.833 757,200.5C 750.031,208.47 742.698,216.136 735,223.5C 715.576,222.507 696.076,222.174 676.5,222.5 Z M 765.5,205.5 C 763.441,202.389 761.608,199.056 760,195.5C 758.644,194.62 757.144,194.286 755.5,194.5C 756.458,193.038 757.624,191.705 759,190.5C 761.735,195.299 763.902,200.299 765.5,205.5 Z M 765.5,205.5 C 770.403,213.393 774.237,221.727 777,230.5C 772.618,222.404 768.785,214.071 765.5,205.5 Z M 796.5,218.5 C 793.551,214.606 791.718,210.273 791,205.5C 793.403,209.635 795.237,213.968 796.5,218.5 Z M 753.5,221.5 C 754.871,218.19 756.204,218.023 757.5,221C 756.207,221.49 754.873,221.657 753.5,221.5 Z M 796.5,218.5 C 799.423,219.163 800.09,220.83 798.5,223.5C 797.05,222.15 796.383,220.484 796.5,218.5 Z"/></g>
<g><path style="opacity:1" fill="#080808" d="M 577.5,208.5 C 576.566,209.568 576.232,210.901 576.5,212.5C 576.649,213.552 576.483,214.552 576,215.5C 572.406,218.698 568.239,219.865 563.5,219C 556.235,215.544 554.902,210.544 559.5,204C 567.016,199.9 573.016,201.4 577.5,208.5 Z"/></g>
<g><path style="opacity:0.986" fill="#060606" d="M 653.5,212.5 C 658.833,212.5 664.167,212.5 669.5,212.5C 670.441,214.05 671.107,215.716 671.5,217.5C 672.035,223.463 669.368,226.963 663.5,228C 651.442,228.275 648.109,223.109 653.5,212.5 Z"/></g>
<g><path style="opacity:0.884" fill="#0011fe" d="M 694.5,257.5 C 672.167,257.5 649.833,257.5 627.5,257.5C 627.232,255.901 627.566,254.568 628.5,253.5C 649.833,253.5 671.167,253.5 692.5,253.5C 705.504,253.667 718.504,253.5 731.5,253C 734.096,251.203 733.763,249.869 730.5,249C 717.504,248.5 704.504,248.333 691.5,248.5C 669.833,248.5 648.167,248.5 626.5,248.5C 620.833,248.5 615.167,248.5 609.5,248.5C 585.5,248.5 561.5,248.5 537.5,248.5C 537.232,246.901 537.566,245.568 538.5,244.5C 588.833,244.5 639.167,244.5 689.5,244.5C 703.837,244.667 718.171,244.5 732.5,244C 735.096,242.203 734.763,240.869 731.5,240C 716.837,239.5 702.17,239.333 687.5,239.5C 637.167,239.5 586.833,239.5 536.5,239.5C 530.833,239.5 525.167,239.5 519.5,239.5C 504.5,239.5 489.5,239.5 474.5,239.5C 474.5,238.167 474.5,236.833 474.5,235.5C 544.5,235.5 614.5,235.5 684.5,235.5C 700.837,235.667 717.17,235.5 733.5,235C 740.865,227.97 747.865,220.636 754.5,213C 756.112,212.28 757.612,212.446 759,213.5C 764.41,225.32 770.077,236.987 776,248.5C 779.218,241.003 782.718,233.67 786.5,226.5C 787.72,225.289 788.887,225.289 790,226.5C 792.516,231.531 795.016,236.531 797.5,241.5C 801.102,234.63 804.435,227.63 807.5,220.5C 808.242,219.713 809.075,219.047 810,218.5C 813.946,224.057 817.113,230.057 819.5,236.5C 825.798,237.496 832.132,237.83 838.5,237.5C 838.5,238.833 838.5,240.167 838.5,241.5C 831.159,241.334 823.826,241.5 816.5,242C 817.293,243.085 817.96,244.252 818.5,245.5C 824.798,246.496 831.132,246.83 837.5,246.5C 837.5,247.833 837.5,249.167 837.5,250.5C 830.159,250.334 822.826,250.5 815.5,251C 816.293,252.085 816.96,253.252 817.5,254.5C 823.798,255.496 830.132,255.83 836.5,255.5C 836.5,256.833 836.5,258.167 836.5,259.5C 829.159,259.666 821.826,259.5 814.5,259C 812.478,254.454 810.311,249.954 808,245.5C 804.333,252.833 800.667,260.167 797,267.5C 795.414,266.624 793.914,265.624 792.5,264.5C 790.338,260.176 788.171,255.842 786,251.5C 782.667,258.833 779.333,266.167 776,273.5C 774.506,274.747 773.006,274.747 771.5,273.5C 765.667,261.167 759.833,248.833 754,236.5C 748.333,242.5 742.667,248.5 737,254.5C 736.517,255.448 736.351,256.448 736.5,257.5C 734.61,257.297 733.11,257.963 732,259.5C 731.25,258.874 730.416,258.374 729.5,258C 717.838,257.5 706.171,257.333 694.5,257.5 Z M 753.5,221.5 C 754.873,221.657 756.207,221.49 757.5,221C 756.204,218.023 754.871,218.19 753.5,221.5 Z M 796.5,218.5 C 796.383,220.484 797.05,222.15 798.5,223.5C 800.09,220.83 799.423,219.163 796.5,218.5 Z M 752.5,230.5 C 753.871,227.19 755.204,227.023 756.5,230C 755.207,230.49 753.873,230.657 752.5,230.5 Z M 794.5,246.5 C 796.728,247.322 797.395,248.655 796.5,250.5C 795.295,249.423 794.628,248.09 794.5,246.5 Z M 793.5,255.5 C 795.728,256.322 796.395,257.655 795.5,259.5C 794.295,258.423 793.628,257.09 793.5,255.5 Z"/></g>
<g><path style="opacity:1" fill="#080808" d="M 458.5,227.5 C 463.242,227.136 467.408,228.47 471,231.5C 474.097,240.256 470.93,244.922 461.5,245.5C 454.006,244.846 450.839,240.846 452,233.5C 453.494,230.686 455.66,228.686 458.5,227.5 Z"/></g>
<g><path style="opacity:1" fill="#070707" d="M 519.5,239.5 C 525.167,239.5 530.833,239.5 536.5,239.5C 537.441,241.05 538.107,242.716 538.5,244.5C 537.566,245.568 537.232,246.901 537.5,248.5C 536.405,251.735 534.072,253.568 530.5,254C 519.331,254.678 515.664,249.844 519.5,239.5 Z"/></g>
<g><path style="opacity:1" fill="#e0e0e0" d="M 536.5,239.5 C 586.833,239.5 637.167,239.5 687.5,239.5C 687.893,241.284 688.559,242.95 689.5,244.5C 639.167,244.5 588.833,244.5 538.5,244.5C 538.107,242.716 537.441,241.05 536.5,239.5 Z"/></g>
<g><path style="opacity:0.991" fill="#2bc5c9" d="M 437.5,248.5 C 437.709,308.751 461.709,356.917 509.5,393C 561.373,428.142 617.373,436.975 677.5,419.5C 673.036,429.762 667.536,439.429 661,448.5C 650.93,482.924 654.263,515.924 671,547.5C 671.667,548.5 671.667,549.5 671,550.5C 634.704,600.072 587.204,634.072 528.5,652.5C 525.618,626.257 520.118,600.591 512,575.5C 506.783,569.947 502.783,563.614 500,556.5C 500.237,548.844 500.237,541.177 500,533.5C 496.013,526.191 489.846,522.024 481.5,521C 468.504,521.151 455.504,521.151 442.5,521C 423.154,515.958 418.987,505.125 430,488.5C 431.163,483.655 429.663,479.821 425.5,477C 414.164,472.53 411.164,465.03 416.5,454.5C 413.506,452.338 411.006,449.672 409,446.5C 408.762,441.526 409.596,436.693 411.5,432C 411.134,427.299 408.801,423.966 404.5,422C 400.181,421.24 395.848,420.573 391.5,420C 384.894,417.747 382.727,413.247 385,406.5C 397.058,389.44 408.725,372.106 420,354.5C 420.667,351.5 420.667,348.5 420,345.5C 418,341.5 416,337.5 414,333.5C 413.333,330.5 413.333,327.5 414,324.5C 419.468,305.63 424.468,286.63 429,267.5C 431.334,260.84 434.168,254.507 437.5,248.5 Z"/></g>
<g><path style="opacity:1" fill="#070707" d="M 609.5,248.5 C 615.167,248.5 620.833,248.5 626.5,248.5C 627.441,250.05 628.107,251.716 628.5,253.5C 627.566,254.568 627.232,255.901 627.5,257.5C 626.405,260.735 624.072,262.568 620.5,263C 609.331,263.678 605.664,258.844 609.5,248.5 Z"/></g>
<g><path style="opacity:1" fill="#dfe0e0" d="M 626.5,248.5 C 648.167,248.5 669.833,248.5 691.5,248.5C 691.629,250.216 691.962,251.883 692.5,253.5C 671.167,253.5 649.833,253.5 628.5,253.5C 628.107,251.716 627.441,250.05 626.5,248.5 Z"/></g>
<g><path style="opacity:0.877" fill="#0010ff" d="M 703.5,297.5 C 666.167,297.5 628.833,297.5 591.5,297.5C 585.167,297.5 578.833,297.5 572.5,297.5C 550.833,297.5 529.167,297.5 507.5,297.5C 507.5,296.167 507.5,294.833 507.5,293.5C 528.833,293.5 550.167,293.5 571.5,293.5C 578.5,293.5 585.5,293.5 592.5,293.5C 629.167,293.5 665.833,293.5 702.5,293.5C 713.187,293.832 723.854,293.499 734.5,292.5C 739.185,287.649 743.685,282.649 748,277.5C 750.754,274.238 753.921,271.571 757.5,269.5C 758.442,269.608 759.275,269.941 760,270.5C 765.41,282.32 771.077,293.987 777,305.5C 780.218,298.003 783.718,290.67 787.5,283.5C 788.72,282.289 789.887,282.289 791,283.5C 793.516,288.531 796.016,293.531 798.5,298.5C 802.102,291.63 805.435,284.63 808.5,277.5C 809.242,276.713 810.075,276.047 811,275.5C 814.946,281.057 818.113,287.057 820.5,293.5C 826.798,294.496 833.132,294.83 839.5,294.5C 839.5,295.833 839.5,297.167 839.5,298.5C 832.159,298.666 824.826,298.5 817.5,298C 815.478,293.454 813.311,288.954 811,284.5C 807.333,291.833 803.667,299.167 800,306.5C 798.414,305.624 796.914,304.624 795.5,303.5C 793.338,299.176 791.171,294.842 789,290.5C 785.667,297.833 782.333,305.167 779,312.5C 777.506,313.747 776.006,313.747 774.5,312.5C 768.667,300.167 762.833,287.833 757,275.5C 750.031,283.47 742.698,291.136 735,298.5C 724.582,297.513 714.082,297.18 703.5,297.5 Z"/></g>
<g><path style="opacity:1" fill="#080808" d="M 491.5,285.5 C 496.242,285.136 500.408,286.47 504,289.5C 507.097,298.256 503.93,302.922 494.5,303.5C 487.006,302.846 483.839,298.846 485,291.5C 486.494,288.686 488.66,286.686 491.5,285.5 Z"/></g>
<g><path style="opacity:1" fill="#0a0a0a" d="M 592.5,293.5 C 585.5,293.5 578.5,293.5 571.5,293.5C 572.839,288.481 576.173,285.814 581.5,285.5C 587.248,285.522 590.915,288.188 592.5,293.5 Z"/></g>
<g><path style="opacity:0.807" fill="#0010ff" d="M 703.5,315.5 C 692.5,315.5 681.5,315.5 670.5,315.5C 670.232,313.901 670.566,312.568 671.5,311.5C 682.167,311.5 692.833,311.5 703.5,311.5C 713.506,311.666 723.506,311.5 733.5,311C 740.865,303.97 747.865,296.636 754.5,289C 756.112,288.28 757.612,288.446 759,289.5C 764.41,301.32 770.077,312.987 776,324.5C 779.218,317.003 782.718,309.67 786.5,302.5C 787.72,301.289 788.887,301.289 790,302.5C 792.516,307.531 795.016,312.531 797.5,317.5C 801.102,310.63 804.435,303.63 807.5,296.5C 808.242,295.713 809.075,295.047 810,294.5C 813.946,300.057 817.113,306.057 819.5,312.5C 825.798,313.496 832.132,313.83 838.5,313.5C 838.5,314.833 838.5,316.167 838.5,317.5C 831.159,317.666 823.826,317.5 816.5,317C 814.478,312.454 812.311,307.954 810,303.5C 806.333,310.833 802.667,318.167 799,325.5C 797.414,324.624 795.914,323.624 794.5,322.5C 792.338,318.176 790.171,313.842 788,309.5C 784.667,316.833 781.333,324.167 778,331.5C 776.506,332.747 775.006,332.747 773.5,331.5C 767.667,319.167 761.833,306.833 756,294.5C 749.031,302.47 741.698,310.136 734,317.5C 733.25,316.874 732.416,316.374 731.5,316C 722.173,315.5 712.839,315.334 703.5,315.5 Z"/></g>
<g><path style="opacity:1" fill="#0b0b0b" d="M 572.5,297.5 C 578.833,297.5 585.167,297.5 591.5,297.5C 591.489,299.017 590.823,300.184 589.5,301C 586.991,302.336 584.324,303.17 581.5,303.5C 577.21,303.204 574.21,301.204 572.5,297.5 Z"/></g>
<g><path style="opacity:1" fill="#080808" d="M 671.5,311.5 C 670.566,312.568 670.232,313.901 670.5,315.5C 670.084,317.752 668.751,319.252 666.5,320C 661.087,322.459 656.253,321.626 652,317.5C 648.927,309.319 651.76,304.652 660.5,303.5C 666.248,303.522 669.915,306.188 671.5,311.5 Z"/></g>
<g><path style="opacity:0.858" fill="#0011fe" d="M 701.5,344.5 C 654.167,344.5 606.833,344.5 559.5,344.5C 559.5,343.167 559.5,341.833 559.5,340.5C 607.167,340.5 654.833,340.5 702.5,340.5C 713.172,340.667 723.839,340.5 734.5,340C 741.865,332.97 748.865,325.636 755.5,318C 757.112,317.28 758.612,317.446 760,318.5C 765.41,330.32 771.077,341.987 777,353.5C 780.218,346.003 783.718,338.67 787.5,331.5C 788.72,330.289 789.887,330.289 791,331.5C 793.516,336.531 796.016,341.531 798.5,346.5C 802.102,339.63 805.435,332.63 808.5,325.5C 809.242,324.713 810.075,324.047 811,323.5C 814.946,329.057 818.113,335.057 820.5,341.5C 826.798,342.496 833.132,342.83 839.5,342.5C 839.5,343.833 839.5,345.167 839.5,346.5C 832.159,346.666 824.826,346.5 817.5,346C 815.478,341.454 813.311,336.954 811,332.5C 807.333,339.833 803.667,347.167 800,354.5C 798.414,353.624 796.914,352.624 795.5,351.5C 793.338,347.176 791.171,342.842 789,338.5C 785.667,345.833 782.333,353.167 779,360.5C 777.506,361.747 776.006,361.747 774.5,360.5C 768.667,348.167 762.833,335.833 757,323.5C 750.031,331.47 742.698,339.136 735,346.5C 734.25,345.874 733.416,345.374 732.5,345C 722.172,344.5 711.839,344.334 701.5,344.5 Z"/></g>
<g><path style="opacity:1" fill="#080808" d="M 559.5,340.5 C 559.5,341.833 559.5,343.167 559.5,344.5C 558.971,346.583 557.971,348.417 556.5,350C 551.468,353.232 546.468,353.232 541.5,350C 537.621,345.631 537.621,341.298 541.5,337C 548.572,333.121 554.572,334.288 559.5,340.5 Z"/></g>
<g><path style="opacity:0.827" fill="#0010ff" d="M 698.5,361.5 C 678.833,361.5 659.167,361.5 639.5,361.5C 639.5,360.167 639.5,358.833 639.5,357.5C 659.5,357.5 679.5,357.5 699.5,357.5C 711.838,357.667 724.171,357.5 736.5,357C 743.199,350.636 749.532,343.969 755.5,337C 757.112,336.28 758.612,336.446 760,337.5C 765.41,349.32 771.077,360.987 777,372.5C 780.218,365.003 783.718,357.67 787.5,350.5C 788.72,349.289 789.887,349.289 791,350.5C 793.516,355.531 796.016,360.531 798.5,365.5C 802.102,358.63 805.435,351.63 808.5,344.5C 809.242,343.713 810.075,343.047 811,342.5C 814.946,348.057 818.113,354.057 820.5,360.5C 826.798,361.496 833.132,361.83 839.5,361.5C 839.5,362.833 839.5,364.167 839.5,365.5C 832.159,365.666 824.826,365.5 817.5,365C 815.478,360.454 813.311,355.954 811,351.5C 807.333,358.833 803.667,366.167 800,373.5C 798.414,372.624 796.914,371.624 795.5,370.5C 793.338,366.176 791.171,361.842 789,357.5C 785.667,364.833 782.333,372.167 779,379.5C 777.506,380.747 776.006,380.747 774.5,379.5C 768.667,367.167 762.833,354.833 757,342.5C 750.031,350.47 742.698,358.136 735,365.5C 733.294,364.692 732.461,363.359 732.5,361.5C 721.167,361.5 709.833,361.5 698.5,361.5 Z"/></g>
<g><path style="opacity:1" fill="#080808" d="M 624.5,352.5 C 629.242,352.136 633.408,353.47 637,356.5C 640.097,365.256 636.93,369.922 627.5,370.5C 620.006,369.846 616.839,365.846 618,358.5C 619.494,355.686 621.66,353.686 624.5,352.5 Z"/></g>
</svg>
