<svg xmlns="http://www.w3.org/2000/svg" width="1280" height="853" viewBox="0 0 1280 853" version="1.1"><path d="M 589.201 7.564 C 554.602 11.337, 519.360 20.347, 489.048 33.167 C 462.616 44.346, 432.431 62.208, 410 79.945 C 396.320 90.761, 367.528 119.791, 357.873 132.500 C 325.479 175.143, 306.392 219.524, 298.306 271 C 295.717 287.486, 295.717 334.514, 298.306 351 C 306.392 402.476, 325.479 446.857, 357.873 489.500 C 367.520 502.199, 396.345 531.265, 409.872 541.933 C 420.333 550.183, 437.939 562.448, 438.438 561.832 C 438.586 561.650, 448.687 528.060, 460.883 487.190 L 483.059 412.880 477.499 406.736 C 459.907 387.296, 447.048 360.501, 442.351 333.500 C 440.291 321.652, 440.277 300.057, 442.323 288.500 C 449.830 246.098, 474.473 209.808, 513.307 183.964 C 602.214 124.797, 729.406 146.308, 787.110 230.271 C 798.608 247.001, 806.901 267.377, 810.600 287.987 C 812.604 299.152, 812.604 322.848, 810.600 334.013 C 805.834 360.569, 793.146 387.019, 775.915 406.316 L 770.722 412.133 792.871 486.243 C 805.052 527.003, 815.235 560.569, 815.500 560.833 C 816.234 561.567, 831.258 551.298, 843 542.036 C 856.641 531.275, 885.445 502.245, 895.127 489.500 C 927.521 446.857, 946.608 402.476, 954.694 351 C 956.124 341.893, 956.500 333.570, 956.500 311 C 956.500 288.430, 956.124 280.107, 954.694 271 C 946.608 219.524, 927.521 175.143, 895.127 132.500 C 885.472 119.791, 856.680 90.761, 843 79.945 C 791.765 39.433, 730 14.644, 662.500 7.503 C 645.175 5.670, 606.271 5.702, 589.201 7.564 M 446 821 L 446 845 635 845 L 824 845 824 821 L 824 797 635 797 L 446 797 446 821" stroke="none" fill="#e3e3e3" fill-rule="evenodd"/><path d="M 577.837 322.250 L 571.450 333.500 538.904 333.763 L 506.358 334.027 494.573 373.763 C 481.861 416.631, 453.105 512.838, 408.870 660.500 L 381.011 753.500 381.005 775.250 L 381 797 627 797 L 873 797 872.995 775.250 L 872.990 753.500 843.932 656.500 C 799.961 509.721, 772.485 417.791, 759.428 373.765 L 747.643 334.029 718.096 333.765 L 688.549 333.500 682.162 322.250 L 675.775 311 630 311 L 584.225 311 577.837 322.250" stroke="none" fill="#2bc1c9" fill-rule="evenodd"/></svg>